<?xml version="1.0" encoding="utf-8" standalone="no"?>
<!DOCTYPE svg PUBLIC "-//W3C//DTD SVG 1.1//EN"
  "http://www.w3.org/Graphics/SVG/1.1/DTD/svg11.dtd">
<!-- Created with matplotlib (http://matplotlib.org/) -->
<svg height="432pt" version="1.1" viewBox="0 0 912.625 432" width="912.625pt" xmlns="http://www.w3.org/2000/svg" xmlns:xlink="http://www.w3.org/1999/xlink">
 <defs>
  <style type="text/css">
*{stroke-linecap:butt;stroke-linejoin:round;}
  </style>
 </defs>
 <g id="figure_1">
  <g id="patch_1">
   <path d="M 0 432 
L 912.625 432 
L 912.625 0 
L 0 0 
z
" style="fill:#ffffff;"/>
  </g>
  <g id="axes_1">
   <g id="patch_2">
    <path d="M 63.825655 389.29375 
L 854.87375 389.29375 
L 854.87375 14.3 
L 63.825655 14.3 
z
" style="fill:#ffffff;"/>
   </g>
   <g id="PathCollection_1"/>
   <g id="PathCollection_2"/>
   <g id="PathCollection_3"/>
   <g id="PathCollection_4"/>
   <g id="PathCollection_5"/>
   <g id="PathCollection_6"/>
   <g id="PathCollection_7"/>
   <g id="PathCollection_8"/>
   <g id="PathCollection_9"/>
   <g id="PathCollection_10"/>
   <g id="matplotlib.axis_1">
    <g id="xtick_1">
     <g id="line2d_1">
      <defs>
       <path d="M 0 0 
L 0 3.5 
" id="m317aab2939" style="stroke:#000000;stroke-width:0.8;"/>
      </defs>
      <g>
       <use style="stroke:#000000;stroke-width:0.8;" x="103.378059" xlink:href="#m317aab2939" y="389.29375"/>
      </g>
     </g>
     <g id="text_1">
      <!-- 0 -->
      <defs>
       <path d="M 31.78125 66.40625 
Q 24.171875 66.40625 20.328125 58.90625 
Q 16.5 51.421875 16.5 36.375 
Q 16.5 21.390625 20.328125 13.890625 
Q 24.171875 6.390625 31.78125 6.390625 
Q 39.453125 6.390625 43.28125 13.890625 
Q 47.125 21.390625 47.125 36.375 
Q 47.125 51.421875 43.28125 58.90625 
Q 39.453125 66.40625 31.78125 66.40625 
z
M 31.78125 74.21875 
Q 44.046875 74.21875 50.515625 64.515625 
Q 56.984375 54.828125 56.984375 36.375 
Q 56.984375 17.96875 50.515625 8.265625 
Q 44.046875 -1.421875 31.78125 -1.421875 
Q 19.53125 -1.421875 13.0625 8.265625 
Q 6.59375 17.96875 6.59375 36.375 
Q 6.59375 54.828125 13.0625 64.515625 
Q 19.53125 74.21875 31.78125 74.21875 
z
" id="DejaVuSans-30"/>
      </defs>
      <g transform="translate(100.196809 403.892188)scale(0.1 -0.1)">
       <use xlink:href="#DejaVuSans-30"/>
      </g>
     </g>
    </g>
    <g id="xtick_2">
     <g id="line2d_2">
      <g>
       <use style="stroke:#000000;stroke-width:0.8;" x="182.482869" xlink:href="#m317aab2939" y="389.29375"/>
      </g>
     </g>
     <g id="text_2">
      <!-- 1 -->
      <defs>
       <path d="M 12.40625 8.296875 
L 28.515625 8.296875 
L 28.515625 63.921875 
L 10.984375 60.40625 
L 10.984375 69.390625 
L 28.421875 72.90625 
L 38.28125 72.90625 
L 38.28125 8.296875 
L 54.390625 8.296875 
L 54.390625 0 
L 12.40625 0 
z
" id="DejaVuSans-31"/>
      </defs>
      <g transform="translate(179.301619 403.892188)scale(0.1 -0.1)">
       <use xlink:href="#DejaVuSans-31"/>
      </g>
     </g>
    </g>
    <g id="xtick_3">
     <g id="line2d_3">
      <g>
       <use style="stroke:#000000;stroke-width:0.8;" x="261.587678" xlink:href="#m317aab2939" y="389.29375"/>
      </g>
     </g>
     <g id="text_3">
      <!-- 2 -->
      <defs>
       <path d="M 19.1875 8.296875 
L 53.609375 8.296875 
L 53.609375 0 
L 7.328125 0 
L 7.328125 8.296875 
Q 12.9375 14.109375 22.625 23.890625 
Q 32.328125 33.6875 34.8125 36.53125 
Q 39.546875 41.84375 41.421875 45.53125 
Q 43.3125 49.21875 43.3125 52.78125 
Q 43.3125 58.59375 39.234375 62.25 
Q 35.15625 65.921875 28.609375 65.921875 
Q 23.96875 65.921875 18.8125 64.3125 
Q 13.671875 62.703125 7.8125 59.421875 
L 7.8125 69.390625 
Q 13.765625 71.78125 18.9375 73 
Q 24.125 74.21875 28.421875 74.21875 
Q 39.75 74.21875 46.484375 68.546875 
Q 53.21875 62.890625 53.21875 53.421875 
Q 53.21875 48.921875 51.53125 44.890625 
Q 49.859375 40.875 45.40625 35.40625 
Q 44.1875 33.984375 37.640625 27.21875 
Q 31.109375 20.453125 19.1875 8.296875 
z
" id="DejaVuSans-32"/>
      </defs>
      <g transform="translate(258.406428 403.892188)scale(0.1 -0.1)">
       <use xlink:href="#DejaVuSans-32"/>
      </g>
     </g>
    </g>
    <g id="xtick_4">
     <g id="line2d_4">
      <g>
       <use style="stroke:#000000;stroke-width:0.8;" x="340.692488" xlink:href="#m317aab2939" y="389.29375"/>
      </g>
     </g>
     <g id="text_4">
      <!-- 3 -->
      <defs>
       <path d="M 40.578125 39.3125 
Q 47.65625 37.796875 51.625 33 
Q 55.609375 28.21875 55.609375 21.1875 
Q 55.609375 10.40625 48.1875 4.484375 
Q 40.765625 -1.421875 27.09375 -1.421875 
Q 22.515625 -1.421875 17.65625 -0.515625 
Q 12.796875 0.390625 7.625 2.203125 
L 7.625 11.71875 
Q 11.71875 9.328125 16.59375 8.109375 
Q 21.484375 6.890625 26.8125 6.890625 
Q 36.078125 6.890625 40.9375 10.546875 
Q 45.796875 14.203125 45.796875 21.1875 
Q 45.796875 27.640625 41.28125 31.265625 
Q 36.765625 34.90625 28.71875 34.90625 
L 20.21875 34.90625 
L 20.21875 43.015625 
L 29.109375 43.015625 
Q 36.375 43.015625 40.234375 45.921875 
Q 44.09375 48.828125 44.09375 54.296875 
Q 44.09375 59.90625 40.109375 62.90625 
Q 36.140625 65.921875 28.71875 65.921875 
Q 24.65625 65.921875 20.015625 65.03125 
Q 15.375 64.15625 9.8125 62.3125 
L 9.8125 71.09375 
Q 15.4375 72.65625 20.34375 73.4375 
Q 25.25 74.21875 29.59375 74.21875 
Q 40.828125 74.21875 47.359375 69.109375 
Q 53.90625 64.015625 53.90625 55.328125 
Q 53.90625 49.265625 50.4375 45.09375 
Q 46.96875 40.921875 40.578125 39.3125 
z
" id="DejaVuSans-33"/>
      </defs>
      <g transform="translate(337.511238 403.892188)scale(0.1 -0.1)">
       <use xlink:href="#DejaVuSans-33"/>
      </g>
     </g>
    </g>
    <g id="xtick_5">
     <g id="line2d_5">
      <g>
       <use style="stroke:#000000;stroke-width:0.8;" x="419.797298" xlink:href="#m317aab2939" y="389.29375"/>
      </g>
     </g>
     <g id="text_5">
      <!-- 4 -->
      <defs>
       <path d="M 37.796875 64.3125 
L 12.890625 25.390625 
L 37.796875 25.390625 
z
M 35.203125 72.90625 
L 47.609375 72.90625 
L 47.609375 25.390625 
L 58.015625 25.390625 
L 58.015625 17.1875 
L 47.609375 17.1875 
L 47.609375 0 
L 37.796875 0 
L 37.796875 17.1875 
L 4.890625 17.1875 
L 4.890625 26.703125 
z
" id="DejaVuSans-34"/>
      </defs>
      <g transform="translate(416.616048 403.892188)scale(0.1 -0.1)">
       <use xlink:href="#DejaVuSans-34"/>
      </g>
     </g>
    </g>
    <g id="xtick_6">
     <g id="line2d_6">
      <g>
       <use style="stroke:#000000;stroke-width:0.8;" x="498.902107" xlink:href="#m317aab2939" y="389.29375"/>
      </g>
     </g>
     <g id="text_6">
      <!-- 5 -->
      <defs>
       <path d="M 10.796875 72.90625 
L 49.515625 72.90625 
L 49.515625 64.59375 
L 19.828125 64.59375 
L 19.828125 46.734375 
Q 21.96875 47.46875 24.109375 47.828125 
Q 26.265625 48.1875 28.421875 48.1875 
Q 40.625 48.1875 47.75 41.5 
Q 54.890625 34.8125 54.890625 23.390625 
Q 54.890625 11.625 47.5625 5.09375 
Q 40.234375 -1.421875 26.90625 -1.421875 
Q 22.3125 -1.421875 17.546875 -0.640625 
Q 12.796875 0.140625 7.71875 1.703125 
L 7.71875 11.625 
Q 12.109375 9.234375 16.796875 8.0625 
Q 21.484375 6.890625 26.703125 6.890625 
Q 35.15625 6.890625 40.078125 11.328125 
Q 45.015625 15.765625 45.015625 23.390625 
Q 45.015625 31 40.078125 35.4375 
Q 35.15625 39.890625 26.703125 39.890625 
Q 22.75 39.890625 18.8125 39.015625 
Q 14.890625 38.140625 10.796875 36.28125 
z
" id="DejaVuSans-35"/>
      </defs>
      <g transform="translate(495.720857 403.892188)scale(0.1 -0.1)">
       <use xlink:href="#DejaVuSans-35"/>
      </g>
     </g>
    </g>
    <g id="xtick_7">
     <g id="line2d_7">
      <g>
       <use style="stroke:#000000;stroke-width:0.8;" x="578.006917" xlink:href="#m317aab2939" y="389.29375"/>
      </g>
     </g>
     <g id="text_7">
      <!-- 6 -->
      <defs>
       <path d="M 33.015625 40.375 
Q 26.375 40.375 22.484375 35.828125 
Q 18.609375 31.296875 18.609375 23.390625 
Q 18.609375 15.53125 22.484375 10.953125 
Q 26.375 6.390625 33.015625 6.390625 
Q 39.65625 6.390625 43.53125 10.953125 
Q 47.40625 15.53125 47.40625 23.390625 
Q 47.40625 31.296875 43.53125 35.828125 
Q 39.65625 40.375 33.015625 40.375 
z
M 52.59375 71.296875 
L 52.59375 62.3125 
Q 48.875 64.0625 45.09375 64.984375 
Q 41.3125 65.921875 37.59375 65.921875 
Q 27.828125 65.921875 22.671875 59.328125 
Q 17.53125 52.734375 16.796875 39.40625 
Q 19.671875 43.65625 24.015625 45.921875 
Q 28.375 48.1875 33.59375 48.1875 
Q 44.578125 48.1875 50.953125 41.515625 
Q 57.328125 34.859375 57.328125 23.390625 
Q 57.328125 12.15625 50.6875 5.359375 
Q 44.046875 -1.421875 33.015625 -1.421875 
Q 20.359375 -1.421875 13.671875 8.265625 
Q 6.984375 17.96875 6.984375 36.375 
Q 6.984375 53.65625 15.1875 63.9375 
Q 23.390625 74.21875 37.203125 74.21875 
Q 40.921875 74.21875 44.703125 73.484375 
Q 48.484375 72.75 52.59375 71.296875 
z
" id="DejaVuSans-36"/>
      </defs>
      <g transform="translate(574.825667 403.892188)scale(0.1 -0.1)">
       <use xlink:href="#DejaVuSans-36"/>
      </g>
     </g>
    </g>
    <g id="xtick_8">
     <g id="line2d_8">
      <g>
       <use style="stroke:#000000;stroke-width:0.8;" x="657.111726" xlink:href="#m317aab2939" y="389.29375"/>
      </g>
     </g>
     <g id="text_8">
      <!-- 7 -->
      <defs>
       <path d="M 8.203125 72.90625 
L 55.078125 72.90625 
L 55.078125 68.703125 
L 28.609375 0 
L 18.3125 0 
L 43.21875 64.59375 
L 8.203125 64.59375 
z
" id="DejaVuSans-37"/>
      </defs>
      <g transform="translate(653.930476 403.892188)scale(0.1 -0.1)">
       <use xlink:href="#DejaVuSans-37"/>
      </g>
     </g>
    </g>
    <g id="xtick_9">
     <g id="line2d_9">
      <g>
       <use style="stroke:#000000;stroke-width:0.8;" x="736.216536" xlink:href="#m317aab2939" y="389.29375"/>
      </g>
     </g>
     <g id="text_9">
      <!-- 8 -->
      <defs>
       <path d="M 31.78125 34.625 
Q 24.75 34.625 20.71875 30.859375 
Q 16.703125 27.09375 16.703125 20.515625 
Q 16.703125 13.921875 20.71875 10.15625 
Q 24.75 6.390625 31.78125 6.390625 
Q 38.8125 6.390625 42.859375 10.171875 
Q 46.921875 13.96875 46.921875 20.515625 
Q 46.921875 27.09375 42.890625 30.859375 
Q 38.875 34.625 31.78125 34.625 
z
M 21.921875 38.8125 
Q 15.578125 40.375 12.03125 44.71875 
Q 8.5 49.078125 8.5 55.328125 
Q 8.5 64.0625 14.71875 69.140625 
Q 20.953125 74.21875 31.78125 74.21875 
Q 42.671875 74.21875 48.875 69.140625 
Q 55.078125 64.0625 55.078125 55.328125 
Q 55.078125 49.078125 51.53125 44.71875 
Q 48 40.375 41.703125 38.8125 
Q 48.828125 37.15625 52.796875 32.3125 
Q 56.78125 27.484375 56.78125 20.515625 
Q 56.78125 9.90625 50.3125 4.234375 
Q 43.84375 -1.421875 31.78125 -1.421875 
Q 19.734375 -1.421875 13.25 4.234375 
Q 6.78125 9.90625 6.78125 20.515625 
Q 6.78125 27.484375 10.78125 32.3125 
Q 14.796875 37.15625 21.921875 38.8125 
z
M 18.3125 54.390625 
Q 18.3125 48.734375 21.84375 45.5625 
Q 25.390625 42.390625 31.78125 42.390625 
Q 38.140625 42.390625 41.71875 45.5625 
Q 45.3125 48.734375 45.3125 54.390625 
Q 45.3125 60.0625 41.71875 63.234375 
Q 38.140625 66.40625 31.78125 66.40625 
Q 25.390625 66.40625 21.84375 63.234375 
Q 18.3125 60.0625 18.3125 54.390625 
z
" id="DejaVuSans-38"/>
      </defs>
      <g transform="translate(733.035286 403.892188)scale(0.1 -0.1)">
       <use xlink:href="#DejaVuSans-38"/>
      </g>
     </g>
    </g>
    <g id="xtick_10">
     <g id="line2d_10">
      <g>
       <use style="stroke:#000000;stroke-width:0.8;" x="815.321345" xlink:href="#m317aab2939" y="389.29375"/>
      </g>
     </g>
     <g id="text_10">
      <!-- 9 -->
      <defs>
       <path d="M 10.984375 1.515625 
L 10.984375 10.5 
Q 14.703125 8.734375 18.5 7.8125 
Q 22.3125 6.890625 25.984375 6.890625 
Q 35.75 6.890625 40.890625 13.453125 
Q 46.046875 20.015625 46.78125 33.40625 
Q 43.953125 29.203125 39.59375 26.953125 
Q 35.25 24.703125 29.984375 24.703125 
Q 19.046875 24.703125 12.671875 31.3125 
Q 6.296875 37.9375 6.296875 49.421875 
Q 6.296875 60.640625 12.9375 67.421875 
Q 19.578125 74.21875 30.609375 74.21875 
Q 43.265625 74.21875 49.921875 64.515625 
Q 56.59375 54.828125 56.59375 36.375 
Q 56.59375 19.140625 48.40625 8.859375 
Q 40.234375 -1.421875 26.421875 -1.421875 
Q 22.703125 -1.421875 18.890625 -0.6875 
Q 15.09375 0.046875 10.984375 1.515625 
z
M 30.609375 32.421875 
Q 37.25 32.421875 41.125 36.953125 
Q 45.015625 41.5 45.015625 49.421875 
Q 45.015625 57.28125 41.125 61.84375 
Q 37.25 66.40625 30.609375 66.40625 
Q 23.96875 66.40625 20.09375 61.84375 
Q 16.21875 57.28125 16.21875 49.421875 
Q 16.21875 41.5 20.09375 36.953125 
Q 23.96875 32.421875 30.609375 32.421875 
z
" id="DejaVuSans-39"/>
      </defs>
      <g transform="translate(812.140095 403.892188)scale(0.1 -0.1)">
       <use xlink:href="#DejaVuSans-39"/>
      </g>
     </g>
    </g>
    <g id="text_11">
     <!-- KFold_TestID -->
     <defs>
      <path d="M 9.8125 72.90625 
L 19.671875 72.90625 
L 19.671875 42.09375 
L 52.390625 72.90625 
L 65.09375 72.90625 
L 28.90625 38.921875 
L 67.671875 0 
L 54.6875 0 
L 19.671875 35.109375 
L 19.671875 0 
L 9.8125 0 
z
" id="DejaVuSans-4b"/>
      <path d="M 9.8125 72.90625 
L 51.703125 72.90625 
L 51.703125 64.59375 
L 19.671875 64.59375 
L 19.671875 43.109375 
L 48.578125 43.109375 
L 48.578125 34.8125 
L 19.671875 34.8125 
L 19.671875 0 
L 9.8125 0 
z
" id="DejaVuSans-46"/>
      <path d="M 30.609375 48.390625 
Q 23.390625 48.390625 19.1875 42.75 
Q 14.984375 37.109375 14.984375 27.296875 
Q 14.984375 17.484375 19.15625 11.84375 
Q 23.34375 6.203125 30.609375 6.203125 
Q 37.796875 6.203125 41.984375 11.859375 
Q 46.1875 17.53125 46.1875 27.296875 
Q 46.1875 37.015625 41.984375 42.703125 
Q 37.796875 48.390625 30.609375 48.390625 
z
M 30.609375 56 
Q 42.328125 56 49.015625 48.375 
Q 55.71875 40.765625 55.71875 27.296875 
Q 55.71875 13.875 49.015625 6.21875 
Q 42.328125 -1.421875 30.609375 -1.421875 
Q 18.84375 -1.421875 12.171875 6.21875 
Q 5.515625 13.875 5.515625 27.296875 
Q 5.515625 40.765625 12.171875 48.375 
Q 18.84375 56 30.609375 56 
z
" id="DejaVuSans-6f"/>
      <path d="M 9.421875 75.984375 
L 18.40625 75.984375 
L 18.40625 0 
L 9.421875 0 
z
" id="DejaVuSans-6c"/>
      <path d="M 45.40625 46.390625 
L 45.40625 75.984375 
L 54.390625 75.984375 
L 54.390625 0 
L 45.40625 0 
L 45.40625 8.203125 
Q 42.578125 3.328125 38.25 0.953125 
Q 33.9375 -1.421875 27.875 -1.421875 
Q 17.96875 -1.421875 11.734375 6.484375 
Q 5.515625 14.40625 5.515625 27.296875 
Q 5.515625 40.1875 11.734375 48.09375 
Q 17.96875 56 27.875 56 
Q 33.9375 56 38.25 53.625 
Q 42.578125 51.265625 45.40625 46.390625 
z
M 14.796875 27.296875 
Q 14.796875 17.390625 18.875 11.75 
Q 22.953125 6.109375 30.078125 6.109375 
Q 37.203125 6.109375 41.296875 11.75 
Q 45.40625 17.390625 45.40625 27.296875 
Q 45.40625 37.203125 41.296875 42.84375 
Q 37.203125 48.484375 30.078125 48.484375 
Q 22.953125 48.484375 18.875 42.84375 
Q 14.796875 37.203125 14.796875 27.296875 
z
" id="DejaVuSans-64"/>
      <path d="M 50.984375 -16.609375 
L 50.984375 -23.578125 
L -0.984375 -23.578125 
L -0.984375 -16.609375 
z
" id="DejaVuSans-5f"/>
      <path d="M -0.296875 72.90625 
L 61.375 72.90625 
L 61.375 64.59375 
L 35.5 64.59375 
L 35.5 0 
L 25.59375 0 
L 25.59375 64.59375 
L -0.296875 64.59375 
z
" id="DejaVuSans-54"/>
      <path d="M 56.203125 29.59375 
L 56.203125 25.203125 
L 14.890625 25.203125 
Q 15.484375 15.921875 20.484375 11.0625 
Q 25.484375 6.203125 34.421875 6.203125 
Q 39.59375 6.203125 44.453125 7.46875 
Q 49.3125 8.734375 54.109375 11.28125 
L 54.109375 2.78125 
Q 49.265625 0.734375 44.1875 -0.34375 
Q 39.109375 -1.421875 33.890625 -1.421875 
Q 20.796875 -1.421875 13.15625 6.1875 
Q 5.515625 13.8125 5.515625 26.8125 
Q 5.515625 40.234375 12.765625 48.109375 
Q 20.015625 56 32.328125 56 
Q 43.359375 56 49.78125 48.890625 
Q 56.203125 41.796875 56.203125 29.59375 
z
M 47.21875 32.234375 
Q 47.125 39.59375 43.09375 43.984375 
Q 39.0625 48.390625 32.421875 48.390625 
Q 24.90625 48.390625 20.390625 44.140625 
Q 15.875 39.890625 15.1875 32.171875 
z
" id="DejaVuSans-65"/>
      <path d="M 44.28125 53.078125 
L 44.28125 44.578125 
Q 40.484375 46.53125 36.375 47.5 
Q 32.28125 48.484375 27.875 48.484375 
Q 21.1875 48.484375 17.84375 46.4375 
Q 14.5 44.390625 14.5 40.28125 
Q 14.5 37.15625 16.890625 35.375 
Q 19.28125 33.59375 26.515625 31.984375 
L 29.59375 31.296875 
Q 39.15625 29.25 43.1875 25.515625 
Q 47.21875 21.78125 47.21875 15.09375 
Q 47.21875 7.46875 41.1875 3.015625 
Q 35.15625 -1.421875 24.609375 -1.421875 
Q 20.21875 -1.421875 15.453125 -0.5625 
Q 10.6875 0.296875 5.421875 2 
L 5.421875 11.28125 
Q 10.40625 8.6875 15.234375 7.390625 
Q 20.0625 6.109375 24.8125 6.109375 
Q 31.15625 6.109375 34.5625 8.28125 
Q 37.984375 10.453125 37.984375 14.40625 
Q 37.984375 18.0625 35.515625 20.015625 
Q 33.0625 21.96875 24.703125 23.78125 
L 21.578125 24.515625 
Q 13.234375 26.265625 9.515625 29.90625 
Q 5.8125 33.546875 5.8125 39.890625 
Q 5.8125 47.609375 11.28125 51.796875 
Q 16.75 56 26.8125 56 
Q 31.78125 56 36.171875 55.265625 
Q 40.578125 54.546875 44.28125 53.078125 
z
" id="DejaVuSans-73"/>
      <path d="M 18.3125 70.21875 
L 18.3125 54.6875 
L 36.8125 54.6875 
L 36.8125 47.703125 
L 18.3125 47.703125 
L 18.3125 18.015625 
Q 18.3125 11.328125 20.140625 9.421875 
Q 21.96875 7.515625 27.59375 7.515625 
L 36.8125 7.515625 
L 36.8125 0 
L 27.59375 0 
Q 17.1875 0 13.234375 3.875 
Q 9.28125 7.765625 9.28125 18.015625 
L 9.28125 47.703125 
L 2.6875 47.703125 
L 2.6875 54.6875 
L 9.28125 54.6875 
L 9.28125 70.21875 
z
" id="DejaVuSans-74"/>
      <path d="M 9.8125 72.90625 
L 19.671875 72.90625 
L 19.671875 0 
L 9.8125 0 
z
" id="DejaVuSans-49"/>
      <path d="M 19.671875 64.796875 
L 19.671875 8.109375 
L 31.59375 8.109375 
Q 46.6875 8.109375 53.6875 14.9375 
Q 60.6875 21.78125 60.6875 36.53125 
Q 60.6875 51.171875 53.6875 57.984375 
Q 46.6875 64.796875 31.59375 64.796875 
z
M 9.8125 72.90625 
L 30.078125 72.90625 
Q 51.265625 72.90625 61.171875 64.09375 
Q 71.09375 55.28125 71.09375 36.53125 
Q 71.09375 17.671875 61.125 8.828125 
Q 51.171875 0 30.078125 0 
L 9.8125 0 
z
" id="DejaVuSans-44"/>
     </defs>
     <g transform="translate(414.154859 420.609688)scale(0.14 -0.14)">
      <use xlink:href="#DejaVuSans-4b"/>
      <use x="65.576172" xlink:href="#DejaVuSans-46"/>
      <use x="123.048828" xlink:href="#DejaVuSans-6f"/>
      <use x="184.230469" xlink:href="#DejaVuSans-6c"/>
      <use x="212.013672" xlink:href="#DejaVuSans-64"/>
      <use x="275.490234" xlink:href="#DejaVuSans-5f"/>
      <use x="325.490234" xlink:href="#DejaVuSans-54"/>
      <use x="386.308594" xlink:href="#DejaVuSans-65"/>
      <use x="447.832031" xlink:href="#DejaVuSans-73"/>
      <use x="499.931641" xlink:href="#DejaVuSans-74"/>
      <use x="539.140625" xlink:href="#DejaVuSans-49"/>
      <use x="568.632812" xlink:href="#DejaVuSans-44"/>
     </g>
    </g>
   </g>
   <g id="matplotlib.axis_2">
    <g id="ytick_1">
     <g id="line2d_11">
      <defs>
       <path d="M 0 0 
L -3.5 0 
" id="m83fdf633f9" style="stroke:#000000;stroke-width:0.8;"/>
      </defs>
      <g>
       <use style="stroke:#000000;stroke-width:0.8;" x="63.825655" xlink:href="#m83fdf633f9" y="341.011974"/>
      </g>
     </g>
     <g id="text_12">
      <!-- 0.760 -->
      <defs>
       <path d="M 10.6875 12.40625 
L 21 12.40625 
L 21 0 
L 10.6875 0 
z
" id="DejaVuSans-2e"/>
      </defs>
      <g transform="translate(28.19753 344.811193)scale(0.1 -0.1)">
       <use xlink:href="#DejaVuSans-30"/>
       <use x="63.623047" xlink:href="#DejaVuSans-2e"/>
       <use x="95.410156" xlink:href="#DejaVuSans-37"/>
       <use x="159.033203" xlink:href="#DejaVuSans-36"/>
       <use x="222.65625" xlink:href="#DejaVuSans-30"/>
      </g>
     </g>
    </g>
    <g id="ytick_2">
     <g id="line2d_12">
      <g>
       <use style="stroke:#000000;stroke-width:0.8;" x="63.825655" xlink:href="#m83fdf633f9" y="285.356813"/>
      </g>
     </g>
     <g id="text_13">
      <!-- 0.765 -->
      <g transform="translate(28.19753 289.156032)scale(0.1 -0.1)">
       <use xlink:href="#DejaVuSans-30"/>
       <use x="63.623047" xlink:href="#DejaVuSans-2e"/>
       <use x="95.410156" xlink:href="#DejaVuSans-37"/>
       <use x="159.033203" xlink:href="#DejaVuSans-36"/>
       <use x="222.65625" xlink:href="#DejaVuSans-35"/>
      </g>
     </g>
    </g>
    <g id="ytick_3">
     <g id="line2d_13">
      <g>
       <use style="stroke:#000000;stroke-width:0.8;" x="63.825655" xlink:href="#m83fdf633f9" y="229.701652"/>
      </g>
     </g>
     <g id="text_14">
      <!-- 0.770 -->
      <g transform="translate(28.19753 233.50087)scale(0.1 -0.1)">
       <use xlink:href="#DejaVuSans-30"/>
       <use x="63.623047" xlink:href="#DejaVuSans-2e"/>
       <use x="95.410156" xlink:href="#DejaVuSans-37"/>
       <use x="159.033203" xlink:href="#DejaVuSans-37"/>
       <use x="222.65625" xlink:href="#DejaVuSans-30"/>
      </g>
     </g>
    </g>
    <g id="ytick_4">
     <g id="line2d_14">
      <g>
       <use style="stroke:#000000;stroke-width:0.8;" x="63.825655" xlink:href="#m83fdf633f9" y="174.04649"/>
      </g>
     </g>
     <g id="text_15">
      <!-- 0.775 -->
      <g transform="translate(28.19753 177.845709)scale(0.1 -0.1)">
       <use xlink:href="#DejaVuSans-30"/>
       <use x="63.623047" xlink:href="#DejaVuSans-2e"/>
       <use x="95.410156" xlink:href="#DejaVuSans-37"/>
       <use x="159.033203" xlink:href="#DejaVuSans-37"/>
       <use x="222.65625" xlink:href="#DejaVuSans-35"/>
      </g>
     </g>
    </g>
    <g id="ytick_5">
     <g id="line2d_15">
      <g>
       <use style="stroke:#000000;stroke-width:0.8;" x="63.825655" xlink:href="#m83fdf633f9" y="118.391329"/>
      </g>
     </g>
     <g id="text_16">
      <!-- 0.780 -->
      <g transform="translate(28.19753 122.190548)scale(0.1 -0.1)">
       <use xlink:href="#DejaVuSans-30"/>
       <use x="63.623047" xlink:href="#DejaVuSans-2e"/>
       <use x="95.410156" xlink:href="#DejaVuSans-37"/>
       <use x="159.033203" xlink:href="#DejaVuSans-38"/>
       <use x="222.65625" xlink:href="#DejaVuSans-30"/>
      </g>
     </g>
    </g>
    <g id="ytick_6">
     <g id="line2d_16">
      <g>
       <use style="stroke:#000000;stroke-width:0.8;" x="63.825655" xlink:href="#m83fdf633f9" y="62.736168"/>
      </g>
     </g>
     <g id="text_17">
      <!-- 0.785 -->
      <g transform="translate(28.19753 66.535387)scale(0.1 -0.1)">
       <use xlink:href="#DejaVuSans-30"/>
       <use x="63.623047" xlink:href="#DejaVuSans-2e"/>
       <use x="95.410156" xlink:href="#DejaVuSans-37"/>
       <use x="159.033203" xlink:href="#DejaVuSans-38"/>
       <use x="222.65625" xlink:href="#DejaVuSans-35"/>
      </g>
     </g>
    </g>
    <g id="text_18">
     <!-- Auc -->
     <defs>
      <path d="M 34.1875 63.1875 
L 20.796875 26.90625 
L 47.609375 26.90625 
z
M 28.609375 72.90625 
L 39.796875 72.90625 
L 67.578125 0 
L 57.328125 0 
L 50.6875 18.703125 
L 17.828125 18.703125 
L 11.1875 0 
L 0.78125 0 
z
" id="DejaVuSans-41"/>
      <path d="M 8.5 21.578125 
L 8.5 54.6875 
L 17.484375 54.6875 
L 17.484375 21.921875 
Q 17.484375 14.15625 20.5 10.265625 
Q 23.53125 6.390625 29.59375 6.390625 
Q 36.859375 6.390625 41.078125 11.03125 
Q 45.3125 15.671875 45.3125 23.6875 
L 45.3125 54.6875 
L 54.296875 54.6875 
L 54.296875 0 
L 45.3125 0 
L 45.3125 8.40625 
Q 42.046875 3.421875 37.71875 1 
Q 33.40625 -1.421875 27.6875 -1.421875 
Q 18.265625 -1.421875 13.375 4.4375 
Q 8.5 10.296875 8.5 21.578125 
z
M 31.109375 56 
z
" id="DejaVuSans-75"/>
      <path d="M 48.78125 52.59375 
L 48.78125 44.1875 
Q 44.96875 46.296875 41.140625 47.34375 
Q 37.3125 48.390625 33.40625 48.390625 
Q 24.65625 48.390625 19.8125 42.84375 
Q 14.984375 37.3125 14.984375 27.296875 
Q 14.984375 17.28125 19.8125 11.734375 
Q 24.65625 6.203125 33.40625 6.203125 
Q 37.3125 6.203125 41.140625 7.25 
Q 44.96875 8.296875 48.78125 10.40625 
L 48.78125 2.09375 
Q 45.015625 0.34375 40.984375 -0.53125 
Q 36.96875 -1.421875 32.421875 -1.421875 
Q 20.0625 -1.421875 12.78125 6.34375 
Q 5.515625 14.109375 5.515625 27.296875 
Q 5.515625 40.671875 12.859375 48.328125 
Q 20.21875 56 33.015625 56 
Q 37.15625 56 41.109375 55.140625 
Q 45.0625 54.296875 48.78125 52.59375 
z
" id="DejaVuSans-63"/>
     </defs>
     <g transform="translate(21.285967 214.870469)rotate(-90)scale(0.14 -0.14)">
      <use xlink:href="#DejaVuSans-41"/>
      <use x="68.408203" xlink:href="#DejaVuSans-75"/>
      <use x="131.787109" xlink:href="#DejaVuSans-63"/>
     </g>
    </g>
   </g>
   <g id="patch_3">
    <path d="M 63.825655 389.29375 
L 63.825655 14.3 
" style="fill:none;stroke:#000000;stroke-linecap:square;stroke-linejoin:miter;stroke-width:0.8;"/>
   </g>
   <g id="patch_4">
    <path d="M 63.825655 389.29375 
L 854.87375 389.29375 
" style="fill:none;stroke:#000000;stroke-linecap:square;stroke-linejoin:miter;stroke-width:0.8;"/>
   </g>
   <g id="PathCollection_11">
    <defs>
     <path d="M 0 2.5 
C 0.663008 2.5 1.29895 2.236584 1.767767 1.767767 
C 2.236584 1.29895 2.5 0.663008 2.5 0 
C 2.5 -0.663008 2.236584 -1.29895 1.767767 -1.767767 
C 1.29895 -2.236584 0.663008 -2.5 0 -2.5 
C -0.663008 -2.5 -1.29895 -2.236584 -1.767767 -1.767767 
C -2.236584 -1.29895 -2.5 -0.663008 -2.5 0 
C -2.5 0.663008 -2.236584 1.29895 -1.767767 1.767767 
C -1.29895 2.236584 -0.663008 2.5 0 2.5 
z
" id="C0_0_4090fd82b4"/>
    </defs>
    <g clip-path="url(#p18b1c5c469)">
     <use style="fill:#e5ffe5;" x="106.680885" xlink:href="#C0_0_4090fd82b4" y="254.189923"/>
    </g>
    <g clip-path="url(#p18b1c5c469)">
     <use style="fill:#ccf1cc;" x="110.063705" xlink:href="#C0_0_4090fd82b4" y="181.838213"/>
    </g>
    <g clip-path="url(#p18b1c5c469)">
     <use style="fill:#b3e3b3;" x="99.14388" xlink:href="#C0_0_4090fd82b4" y="149.558219"/>
    </g>
    <g clip-path="url(#p18b1c5c469)">
     <use style="fill:#99d599;" x="97.880894" xlink:href="#C0_0_4090fd82b4" y="123.956845"/>
    </g>
    <g clip-path="url(#p18b1c5c469)">
     <use style="fill:#80c780;" x="101.017319" xlink:href="#C0_0_4090fd82b4" y="137.314084"/>
    </g>
    <g clip-path="url(#p18b1c5c469)">
     <use style="fill:#66b866;" x="104.505204" xlink:href="#C0_0_4090fd82b4" y="102.807884"/>
    </g>
    <g clip-path="url(#p18b1c5c469)">
     <use style="fill:#4daa4d;" x="96.828996" xlink:href="#C0_0_4090fd82b4" y="119.504432"/>
    </g>
    <g clip-path="url(#p18b1c5c469)">
     <use style="fill:#329c32;" x="105.614851" xlink:href="#C0_0_4090fd82b4" y="119.504432"/>
    </g>
    <g clip-path="url(#p18b1c5c469)">
     <use style="fill:#198e19;" x="103.449323" xlink:href="#C0_0_4090fd82b4" y="121.730639"/>
    </g>
    <g clip-path="url(#p18b1c5c469)">
     <use style="fill:#008000;" x="100.557454" xlink:href="#C0_0_4090fd82b4" y="137.314084"/>
    </g>
   </g>
   <g id="PathCollection_12">
    <defs>
     <path d="M 0 2.5 
C 0.663008 2.5 1.29895 2.236584 1.767767 1.767767 
C 2.236584 1.29895 2.5 0.663008 2.5 0 
C 2.5 -0.663008 2.236584 -1.29895 1.767767 -1.767767 
C 1.29895 -2.236584 0.663008 -2.5 0 -2.5 
C -0.663008 -2.5 -1.29895 -2.236584 -1.767767 -1.767767 
C -2.236584 -1.29895 -2.5 -0.663008 -2.5 0 
C -2.5 0.663008 -2.236584 1.29895 -1.767767 1.767767 
C -1.29895 2.236584 -0.663008 2.5 0 2.5 
z
" id="C1_0_75da6d4fe4"/>
    </defs>
    <g clip-path="url(#p18b1c5c469)">
     <use style="fill:#e5ffe5;" x="186.119546" xlink:href="#C1_0_75da6d4fe4" y="354.369213"/>
    </g>
    <g clip-path="url(#p18b1c5c469)">
     <use style="fill:#ccf1cc;" x="187.502847" xlink:href="#C1_0_75da6d4fe4" y="299.827155"/>
    </g>
    <g clip-path="url(#p18b1c5c469)">
     <use style="fill:#b3e3b3;" x="185.310961" xlink:href="#C1_0_75da6d4fe4" y="246.3982"/>
    </g>
    <g clip-path="url(#p18b1c5c469)">
     <use style="fill:#99d599;" x="185.146685" xlink:href="#C1_0_75da6d4fe4" y="227.475445"/>
    </g>
    <g clip-path="url(#p18b1c5c469)">
     <use style="fill:#80c780;" x="186.478402" xlink:href="#C1_0_75da6d4fe4" y="209.665794"/>
    </g>
    <g clip-path="url(#p18b1c5c469)">
     <use style="fill:#66b866;" x="178.640846" xlink:href="#C1_0_75da6d4fe4" y="229.701652"/>
    </g>
    <g clip-path="url(#p18b1c5c469)">
     <use style="fill:#4daa4d;" x="178.522753" xlink:href="#C1_0_75da6d4fe4" y="248.624406"/>
    </g>
    <g clip-path="url(#p18b1c5c469)">
     <use style="fill:#329c32;" x="186.480775" xlink:href="#C1_0_75da6d4fe4" y="260.868542"/>
    </g>
    <g clip-path="url(#p18b1c5c469)">
     <use style="fill:#198e19;" x="178.047953" xlink:href="#C1_0_75da6d4fe4" y="255.303026"/>
    </g>
    <g clip-path="url(#p18b1c5c469)">
     <use style="fill:#008000;" x="179.814697" xlink:href="#C1_0_75da6d4fe4" y="255.303026"/>
    </g>
   </g>
   <g id="PathCollection_13">
    <defs>
     <path d="M 0 2.5 
C 0.663008 2.5 1.29895 2.236584 1.767767 1.767767 
C 2.236584 1.29895 2.5 0.663008 2.5 0 
C 2.5 -0.663008 2.236584 -1.29895 1.767767 -1.767767 
C 1.29895 -2.236584 0.663008 -2.5 0 -2.5 
C -0.663008 -2.5 -1.29895 -2.236584 -1.767767 -1.767767 
C -2.236584 -1.29895 -2.5 -0.663008 -2.5 0 
C -2.5 0.663008 -2.236584 1.29895 -1.767767 1.767767 
C -1.29895 2.236584 -0.663008 2.5 0 2.5 
z
" id="C2_0_5f547d70c9"/>
    </defs>
    <g clip-path="url(#p18b1c5c469)">
     <use style="fill:#e5ffe5;" x="266.600905" xlink:href="#C2_0_5f547d70c9" y="297.600948"/>
    </g>
    <g clip-path="url(#p18b1c5c469)">
     <use style="fill:#ccf1cc;" x="258.118089" xlink:href="#C2_0_5f547d70c9" y="220.796826"/>
    </g>
    <g clip-path="url(#p18b1c5c469)">
     <use style="fill:#b3e3b3;" x="257.444005" xlink:href="#C2_0_5f547d70c9" y="186.290626"/>
    </g>
    <g clip-path="url(#p18b1c5c469)">
     <use style="fill:#99d599;" x="254.323181" xlink:href="#C2_0_5f547d70c9" y="160.689252"/>
    </g>
    <g clip-path="url(#p18b1c5c469)">
     <use style="fill:#80c780;" x="259.540187" xlink:href="#C2_0_5f547d70c9" y="164.028561"/>
    </g>
    <g clip-path="url(#p18b1c5c469)">
     <use style="fill:#66b866;" x="266.878117" xlink:href="#C2_0_5f547d70c9" y="226.362342"/>
    </g>
    <g clip-path="url(#p18b1c5c469)">
     <use style="fill:#4daa4d;" x="266.754747" xlink:href="#C2_0_5f547d70c9" y="181.838213"/>
    </g>
    <g clip-path="url(#p18b1c5c469)">
     <use style="fill:#329c32;" x="264.382465" xlink:href="#C2_0_5f547d70c9" y="162.915458"/>
    </g>
    <g clip-path="url(#p18b1c5c469)">
     <use style="fill:#198e19;" x="262.580948" xlink:href="#C2_0_5f547d70c9" y="181.838213"/>
    </g>
    <g clip-path="url(#p18b1c5c469)">
     <use style="fill:#008000;" x="257.256713" xlink:href="#C2_0_5f547d70c9" y="186.290626"/>
    </g>
   </g>
   <g id="PathCollection_14">
    <defs>
     <path d="M 0 2.5 
C 0.663008 2.5 1.29895 2.236584 1.767767 1.767767 
C 2.236584 1.29895 2.5 0.663008 2.5 0 
C 2.5 -0.663008 2.236584 -1.29895 1.767767 -1.767767 
C 1.29895 -2.236584 0.663008 -2.5 0 -2.5 
C -0.663008 -2.5 -1.29895 -2.236584 -1.767767 -1.767767 
C -2.236584 -1.29895 -2.5 -0.663008 -2.5 0 
C -2.5 0.663008 -2.236584 1.29895 -1.767767 1.767767 
C -1.29895 2.236584 -0.663008 2.5 0 2.5 
z
" id="C3_0_2e61031c77"/>
    </defs>
    <g clip-path="url(#p18b1c5c469)">
     <use style="fill:#e5ffe5;" x="340.02106" xlink:href="#C3_0_2e61031c77" y="319.863013"/>
    </g>
    <g clip-path="url(#p18b1c5c469)">
     <use style="fill:#ccf1cc;" x="336.953866" xlink:href="#C3_0_2e61031c77" y="230.814755"/>
    </g>
    <g clip-path="url(#p18b1c5c469)">
     <use style="fill:#b3e3b3;" x="345.401573" xlink:href="#C3_0_2e61031c77" y="218.570619"/>
    </g>
    <g clip-path="url(#p18b1c5c469)">
     <use style="fill:#99d599;" x="339.587609" xlink:href="#C3_0_2e61031c77" y="210.778897"/>
    </g>
    <g clip-path="url(#p18b1c5c469)">
     <use style="fill:#80c780;" x="337.240568" xlink:href="#C3_0_2e61031c77" y="198.534761"/>
    </g>
    <g clip-path="url(#p18b1c5c469)">
     <use style="fill:#66b866;" x="334.639386" xlink:href="#C3_0_2e61031c77" y="205.213381"/>
    </g>
    <g clip-path="url(#p18b1c5c469)">
     <use style="fill:#4daa4d;" x="346.656492" xlink:href="#C3_0_2e61031c77" y="166.254768"/>
    </g>
    <g clip-path="url(#p18b1c5c469)">
     <use style="fill:#329c32;" x="340.509688" xlink:href="#C3_0_2e61031c77" y="174.04649"/>
    </g>
    <g clip-path="url(#p18b1c5c469)">
     <use style="fill:#198e19;" x="345.540668" xlink:href="#C3_0_2e61031c77" y="170.707181"/>
    </g>
    <g clip-path="url(#p18b1c5c469)">
     <use style="fill:#008000;" x="346.023171" xlink:href="#C3_0_2e61031c77" y="216.344413"/>
    </g>
   </g>
   <g id="PathCollection_15">
    <defs>
     <path d="M 0 2.5 
C 0.663008 2.5 1.29895 2.236584 1.767767 1.767767 
C 2.236584 1.29895 2.5 0.663008 2.5 0 
C 2.5 -0.663008 2.236584 -1.29895 1.767767 -1.767767 
C 1.29895 -2.236584 0.663008 -2.5 0 -2.5 
C -0.663008 -2.5 -1.29895 -2.236584 -1.767767 -1.767767 
C -2.236584 -1.29895 -2.5 -0.663008 -2.5 0 
C -2.5 0.663008 -2.236584 1.29895 -1.767767 1.767767 
C -1.29895 2.236584 -0.663008 2.5 0 2.5 
z
" id="C4_0_fed0ad857f"/>
    </defs>
    <g clip-path="url(#p18b1c5c469)">
     <use style="fill:#e5ffe5;" x="416.445956" xlink:href="#C4_0_fed0ad857f" y="348.803697"/>
    </g>
    <g clip-path="url(#p18b1c5c469)">
     <use style="fill:#ccf1cc;" x="419.73906" xlink:href="#C4_0_fed0ad857f" y="286.469916"/>
    </g>
    <g clip-path="url(#p18b1c5c469)">
     <use style="fill:#b3e3b3;" x="413.494389" xlink:href="#C4_0_fed0ad857f" y="268.660265"/>
    </g>
    <g clip-path="url(#p18b1c5c469)">
     <use style="fill:#99d599;" x="419.839261" xlink:href="#C4_0_fed0ad857f" y="225.249239"/>
    </g>
    <g clip-path="url(#p18b1c5c469)">
     <use style="fill:#80c780;" x="426.074643" xlink:href="#C4_0_fed0ad857f" y="231.927858"/>
    </g>
    <g clip-path="url(#p18b1c5c469)">
     <use style="fill:#66b866;" x="412.122507" xlink:href="#C4_0_fed0ad857f" y="236.380271"/>
    </g>
    <g clip-path="url(#p18b1c5c469)">
     <use style="fill:#4daa4d;" x="421.62776" xlink:href="#C4_0_fed0ad857f" y="246.3982"/>
    </g>
    <g clip-path="url(#p18b1c5c469)">
     <use style="fill:#329c32;" x="427.182858" xlink:href="#C4_0_fed0ad857f" y="261.981645"/>
    </g>
    <g clip-path="url(#p18b1c5c469)">
     <use style="fill:#198e19;" x="412.66349" xlink:href="#C4_0_fed0ad857f" y="263.094748"/>
    </g>
    <g clip-path="url(#p18b1c5c469)">
     <use style="fill:#008000;" x="424.987969" xlink:href="#C4_0_fed0ad857f" y="275.338884"/>
    </g>
   </g>
   <g id="PathCollection_16">
    <defs>
     <path d="M 0 2.5 
C 0.663008 2.5 1.29895 2.236584 1.767767 1.767767 
C 2.236584 1.29895 2.5 0.663008 2.5 0 
C 2.5 -0.663008 2.236584 -1.29895 1.767767 -1.767767 
C 1.29895 -2.236584 0.663008 -2.5 0 -2.5 
C -0.663008 -2.5 -1.29895 -2.236584 -1.767767 -1.767767 
C -2.236584 -1.29895 -2.5 -0.663008 -2.5 0 
C -2.5 0.663008 -2.236584 1.29895 -1.767767 1.767767 
C -1.29895 2.236584 -0.663008 2.5 0 2.5 
z
" id="C5_0_8c2b65009c"/>
    </defs>
    <g clip-path="url(#p18b1c5c469)">
     <use style="fill:#e5ffe5;" x="503.625448" xlink:href="#C5_0_8c2b65009c" y="369.952658"/>
    </g>
    <g clip-path="url(#p18b1c5c469)">
     <use style="fill:#ccf1cc;" x="504.29818" xlink:href="#C5_0_8c2b65009c" y="314.297497"/>
    </g>
    <g clip-path="url(#p18b1c5c469)">
     <use style="fill:#b3e3b3;" x="502.993097" xlink:href="#C5_0_8c2b65009c" y="319.863013"/>
    </g>
    <g clip-path="url(#p18b1c5c469)">
     <use style="fill:#99d599;" x="501.504572" xlink:href="#C5_0_8c2b65009c" y="250.850613"/>
    </g>
    <g clip-path="url(#p18b1c5c469)">
     <use style="fill:#80c780;" x="491.522205" xlink:href="#C5_0_8c2b65009c" y="245.285097"/>
    </g>
    <g clip-path="url(#p18b1c5c469)">
     <use style="fill:#66b866;" x="499.34833" xlink:href="#C5_0_8c2b65009c" y="207.439587"/>
    </g>
    <g clip-path="url(#p18b1c5c469)">
     <use style="fill:#4daa4d;" x="504.610555" xlink:href="#C5_0_8c2b65009c" y="233.040961"/>
    </g>
    <g clip-path="url(#p18b1c5c469)">
     <use style="fill:#329c32;" x="500.249391" xlink:href="#C5_0_8c2b65009c" y="237.493374"/>
    </g>
    <g clip-path="url(#p18b1c5c469)">
     <use style="fill:#198e19;" x="502.68446" xlink:href="#C5_0_8c2b65009c" y="236.380271"/>
    </g>
    <g clip-path="url(#p18b1c5c469)">
     <use style="fill:#008000;" x="498.196432" xlink:href="#C5_0_8c2b65009c" y="247.511303"/>
    </g>
   </g>
   <g id="PathCollection_17">
    <defs>
     <path d="M 0 2.5 
C 0.663008 2.5 1.29895 2.236584 1.767767 1.767767 
C 2.236584 1.29895 2.5 0.663008 2.5 0 
C 2.5 -0.663008 2.236584 -1.29895 1.767767 -1.767767 
C 1.29895 -2.236584 0.663008 -2.5 0 -2.5 
C -0.663008 -2.5 -1.29895 -2.236584 -1.767767 -1.767767 
C -2.236584 -1.29895 -2.5 -0.663008 -2.5 0 
C -2.5 0.663008 -2.236584 1.29895 -1.767767 1.767767 
C -1.29895 2.236584 -0.663008 2.5 0 2.5 
z
" id="C6_0_15e0f29bd7"/>
    </defs>
    <g clip-path="url(#p18b1c5c469)">
     <use style="fill:#e5ffe5;" x="571.257891" xlink:href="#C6_0_15e0f29bd7" y="300.940258"/>
    </g>
    <g clip-path="url(#p18b1c5c469)">
     <use style="fill:#ccf1cc;" x="576.984535" xlink:href="#C6_0_15e0f29bd7" y="226.362342"/>
    </g>
    <g clip-path="url(#p18b1c5c469)">
     <use style="fill:#b3e3b3;" x="578.831751" xlink:href="#C6_0_15e0f29bd7" y="208.55269"/>
    </g>
    <g clip-path="url(#p18b1c5c469)">
     <use style="fill:#99d599;" x="576.151426" xlink:href="#C6_0_15e0f29bd7" y="264.207852"/>
    </g>
    <g clip-path="url(#p18b1c5c469)">
     <use style="fill:#80c780;" x="579.039535" xlink:href="#C6_0_15e0f29bd7" y="211.892"/>
    </g>
    <g clip-path="url(#p18b1c5c469)">
     <use style="fill:#66b866;" x="582.748245" xlink:href="#C6_0_15e0f29bd7" y="217.457516"/>
    </g>
    <g clip-path="url(#p18b1c5c469)">
     <use style="fill:#4daa4d;" x="578.12777" xlink:href="#C6_0_15e0f29bd7" y="236.380271"/>
    </g>
    <g clip-path="url(#p18b1c5c469)">
     <use style="fill:#329c32;" x="577.238103" xlink:href="#C6_0_15e0f29bd7" y="241.945787"/>
    </g>
    <g clip-path="url(#p18b1c5c469)">
     <use style="fill:#198e19;" x="584.194495" xlink:href="#C6_0_15e0f29bd7" y="239.719581"/>
    </g>
    <g clip-path="url(#p18b1c5c469)">
     <use style="fill:#008000;" x="572.656477" xlink:href="#C6_0_15e0f29bd7" y="251.963716"/>
    </g>
   </g>
   <g id="PathCollection_18">
    <defs>
     <path d="M 0 2.5 
C 0.663008 2.5 1.29895 2.236584 1.767767 1.767767 
C 2.236584 1.29895 2.5 0.663008 2.5 0 
C 2.5 -0.663008 2.236584 -1.29895 1.767767 -1.767767 
C 1.29895 -2.236584 0.663008 -2.5 0 -2.5 
C -0.663008 -2.5 -1.29895 -2.236584 -1.767767 -1.767767 
C -2.236584 -1.29895 -2.5 -0.663008 -2.5 0 
C -2.5 0.663008 -2.236584 1.29895 -1.767767 1.767767 
C -1.29895 2.236584 -0.663008 2.5 0 2.5 
z
" id="C7_0_e563a76867"/>
    </defs>
    <g clip-path="url(#p18b1c5c469)">
     <use style="fill:#e5ffe5;" x="652.454361" xlink:href="#C7_0_e563a76867" y="292.035432"/>
    </g>
    <g clip-path="url(#p18b1c5c469)">
     <use style="fill:#ccf1cc;" x="660.061413" xlink:href="#C7_0_e563a76867" y="145.105807"/>
    </g>
    <g clip-path="url(#p18b1c5c469)">
     <use style="fill:#b3e3b3;" x="655.645013" xlink:href="#C7_0_e563a76867" y="125.069948"/>
    </g>
    <g clip-path="url(#p18b1c5c469)">
     <use style="fill:#99d599;" x="664.813935" xlink:href="#C7_0_e563a76867" y="141.766497"/>
    </g>
    <g clip-path="url(#p18b1c5c469)">
     <use style="fill:#80c780;" x="661.992291" xlink:href="#C7_0_e563a76867" y="106.147194"/>
    </g>
    <g clip-path="url(#p18b1c5c469)">
     <use style="fill:#66b866;" x="658.486868" xlink:href="#C7_0_e563a76867" y="105.03409"/>
    </g>
    <g clip-path="url(#p18b1c5c469)">
     <use style="fill:#4daa4d;" x="651.287791" xlink:href="#C7_0_e563a76867" y="107.260297"/>
    </g>
    <g clip-path="url(#p18b1c5c469)">
     <use style="fill:#329c32;" x="658.65575" xlink:href="#C7_0_e563a76867" y="118.391329"/>
    </g>
    <g clip-path="url(#p18b1c5c469)">
     <use style="fill:#198e19;" x="657.36956" xlink:href="#C7_0_e563a76867" y="146.21891"/>
    </g>
    <g clip-path="url(#p18b1c5c469)">
     <use style="fill:#008000;" x="662.85002" xlink:href="#C7_0_e563a76867" y="148.445116"/>
    </g>
   </g>
   <g id="PathCollection_19">
    <defs>
     <path d="M 0 2.5 
C 0.663008 2.5 1.29895 2.236584 1.767767 1.767767 
C 2.236584 1.29895 2.5 0.663008 2.5 0 
C 2.5 -0.663008 2.236584 -1.29895 1.767767 -1.767767 
C 1.29895 -2.236584 0.663008 -2.5 0 -2.5 
C -0.663008 -2.5 -1.29895 -2.236584 -1.767767 -1.767767 
C -2.236584 -1.29895 -2.5 -0.663008 -2.5 0 
C -2.5 0.663008 -2.236584 1.29895 -1.767767 1.767767 
C -1.29895 2.236584 -0.663008 2.5 0 2.5 
z
" id="C8_0_cbbf95ec6d"/>
    </defs>
    <g clip-path="url(#p18b1c5c469)">
     <use style="fill:#e5ffe5;" x="738.585212" xlink:href="#C8_0_cbbf95ec6d" y="260.868542"/>
    </g>
    <g clip-path="url(#p18b1c5c469)">
     <use style="fill:#ccf1cc;" x="737.151636" xlink:href="#C8_0_cbbf95ec6d" y="207.439587"/>
    </g>
    <g clip-path="url(#p18b1c5c469)">
     <use style="fill:#b3e3b3;" x="739.708459" xlink:href="#C8_0_cbbf95ec6d" y="224.136136"/>
    </g>
    <g clip-path="url(#p18b1c5c469)">
     <use style="fill:#99d599;" x="729.522572" xlink:href="#C8_0_cbbf95ec6d" y="167.367871"/>
    </g>
    <g clip-path="url(#p18b1c5c469)">
     <use style="fill:#80c780;" x="729.830129" xlink:href="#C8_0_cbbf95ec6d" y="171.820284"/>
    </g>
    <g clip-path="url(#p18b1c5c469)">
     <use style="fill:#66b866;" x="731.985924" xlink:href="#C8_0_cbbf95ec6d" y="162.915458"/>
    </g>
    <g clip-path="url(#p18b1c5c469)">
     <use style="fill:#4daa4d;" x="743.142721" xlink:href="#C8_0_cbbf95ec6d" y="175.159594"/>
    </g>
    <g clip-path="url(#p18b1c5c469)">
     <use style="fill:#329c32;" x="736.275869" xlink:href="#C8_0_cbbf95ec6d" y="208.55269"/>
    </g>
    <g clip-path="url(#p18b1c5c469)">
     <use style="fill:#198e19;" x="742.537546" xlink:href="#C8_0_cbbf95ec6d" y="174.04649"/>
    </g>
    <g clip-path="url(#p18b1c5c469)">
     <use style="fill:#008000;" x="738.808708" xlink:href="#C8_0_cbbf95ec6d" y="190.743039"/>
    </g>
   </g>
   <g id="PathCollection_20">
    <defs>
     <path d="M 0 2.5 
C 0.663008 2.5 1.29895 2.236584 1.767767 1.767767 
C 2.236584 1.29895 2.5 0.663008 2.5 0 
C 2.5 -0.663008 2.236584 -1.29895 1.767767 -1.767767 
C 1.29895 -2.236584 0.663008 -2.5 0 -2.5 
C -0.663008 -2.5 -1.29895 -2.236584 -1.767767 -1.767767 
C -2.236584 -1.29895 -2.5 -0.663008 -2.5 0 
C -2.5 0.663008 -2.236584 1.29895 -1.767767 1.767767 
C -1.29895 2.236584 -0.663008 2.5 0 2.5 
z
" id="C9_0_ba4c5e7bb8"/>
    </defs>
    <g clip-path="url(#p18b1c5c469)">
     <use style="fill:#e5ffe5;" x="822.98921" xlink:href="#C9_0_ba4c5e7bb8" y="249.73751"/>
    </g>
    <g clip-path="url(#p18b1c5c469)">
     <use style="fill:#ccf1cc;" x="813.240246" xlink:href="#C9_0_ba4c5e7bb8" y="176.272697"/>
    </g>
    <g clip-path="url(#p18b1c5c469)">
     <use style="fill:#b3e3b3;" x="817.907078" xlink:href="#C9_0_ba4c5e7bb8" y="154.010632"/>
    </g>
    <g clip-path="url(#p18b1c5c469)">
     <use style="fill:#99d599;" x="813.62947" xlink:href="#C9_0_ba4c5e7bb8" y="146.21891"/>
    </g>
    <g clip-path="url(#p18b1c5c469)">
     <use style="fill:#80c780;" x="814.462895" xlink:href="#C9_0_ba4c5e7bb8" y="142.8796"/>
    </g>
    <g clip-path="url(#p18b1c5c469)">
     <use style="fill:#66b866;" x="809.824554" xlink:href="#C9_0_ba4c5e7bb8" y="145.105807"/>
    </g>
    <g clip-path="url(#p18b1c5c469)">
     <use style="fill:#4daa4d;" x="820.471168" xlink:href="#C9_0_ba4c5e7bb8" y="154.010632"/>
    </g>
    <g clip-path="url(#p18b1c5c469)">
     <use style="fill:#329c32;" x="811.132572" xlink:href="#C9_0_ba4c5e7bb8" y="196.308555"/>
    </g>
    <g clip-path="url(#p18b1c5c469)">
     <use style="fill:#198e19;" x="814.39172" xlink:href="#C9_0_ba4c5e7bb8" y="180.72511"/>
    </g>
    <g clip-path="url(#p18b1c5c469)">
     <use style="fill:#008000;" x="813.135275" xlink:href="#C9_0_ba4c5e7bb8" y="180.72511"/>
    </g>
   </g>
  </g>
  <g id="legend_1">
   <g id="text_19">
    <!-- Epoch -->
    <defs>
     <path d="M 9.8125 72.90625 
L 55.90625 72.90625 
L 55.90625 64.59375 
L 19.671875 64.59375 
L 19.671875 43.015625 
L 54.390625 43.015625 
L 54.390625 34.71875 
L 19.671875 34.71875 
L 19.671875 8.296875 
L 56.78125 8.296875 
L 56.78125 0 
L 9.8125 0 
z
" id="DejaVuSans-45"/>
     <path d="M 18.109375 8.203125 
L 18.109375 -20.796875 
L 9.078125 -20.796875 
L 9.078125 54.6875 
L 18.109375 54.6875 
L 18.109375 46.390625 
Q 20.953125 51.265625 25.265625 53.625 
Q 29.59375 56 35.59375 56 
Q 45.5625 56 51.78125 48.09375 
Q 58.015625 40.1875 58.015625 27.296875 
Q 58.015625 14.40625 51.78125 6.484375 
Q 45.5625 -1.421875 35.59375 -1.421875 
Q 29.59375 -1.421875 25.265625 0.953125 
Q 20.953125 3.328125 18.109375 8.203125 
z
M 48.6875 27.296875 
Q 48.6875 37.203125 44.609375 42.84375 
Q 40.53125 48.484375 33.40625 48.484375 
Q 26.265625 48.484375 22.1875 42.84375 
Q 18.109375 37.203125 18.109375 27.296875 
Q 18.109375 17.390625 22.1875 11.75 
Q 26.265625 6.109375 33.40625 6.109375 
Q 40.53125 6.109375 44.609375 11.75 
Q 48.6875 17.390625 48.6875 27.296875 
z
" id="DejaVuSans-70"/>
     <path d="M 54.890625 33.015625 
L 54.890625 0 
L 45.90625 0 
L 45.90625 32.71875 
Q 45.90625 40.484375 42.875 44.328125 
Q 39.84375 48.1875 33.796875 48.1875 
Q 26.515625 48.1875 22.3125 43.546875 
Q 18.109375 38.921875 18.109375 30.90625 
L 18.109375 0 
L 9.078125 0 
L 9.078125 75.984375 
L 18.109375 75.984375 
L 18.109375 46.1875 
Q 21.34375 51.125 25.703125 53.5625 
Q 30.078125 56 35.796875 56 
Q 45.21875 56 50.046875 50.171875 
Q 54.890625 44.34375 54.890625 33.015625 
z
" id="DejaVuSans-68"/>
    </defs>
    <g transform="translate(867.951563 145.36875)scale(0.1 -0.1)">
     <use xlink:href="#DejaVuSans-45"/>
     <use x="63.183594" xlink:href="#DejaVuSans-70"/>
     <use x="126.660156" xlink:href="#DejaVuSans-6f"/>
     <use x="187.841797" xlink:href="#DejaVuSans-63"/>
     <use x="242.822266" xlink:href="#DejaVuSans-68"/>
    </g>
   </g>
   <g id="PathCollection_21">
    <defs>
     <path d="M 0 3.872983 
C 1.027127 3.872983 2.012324 3.464901 2.738613 2.738613 
C 3.464901 2.012324 3.872983 1.027127 3.872983 0 
C 3.872983 -1.027127 3.464901 -2.012324 2.738613 -2.738613 
C 2.012324 -3.464901 1.027127 -3.872983 0 -3.872983 
C -1.027127 -3.872983 -2.012324 -3.464901 -2.738613 -2.738613 
C -3.464901 -2.012324 -3.872983 -1.027127 -3.872983 0 
C -3.872983 1.027127 -3.464901 2.012324 -2.738613 2.738613 
C -2.012324 3.464901 -1.027127 3.872983 0 3.872983 
z
" id="ma4f5440386" style="stroke:#e5ffe5;"/>
    </defs>
    <g>
     <use style="fill:#e5ffe5;stroke:#e5ffe5;" x="872.9" xlink:href="#ma4f5440386" y="157.421875"/>
    </g>
   </g>
   <g id="text_20">
    <!-- 1 -->
    <g transform="translate(890.9 160.046875)scale(0.1 -0.1)">
     <use xlink:href="#DejaVuSans-31"/>
    </g>
   </g>
   <g id="PathCollection_22">
    <defs>
     <path d="M 0 3.872983 
C 1.027127 3.872983 2.012324 3.464901 2.738613 2.738613 
C 3.464901 2.012324 3.872983 1.027127 3.872983 0 
C 3.872983 -1.027127 3.464901 -2.012324 2.738613 -2.738613 
C 2.012324 -3.464901 1.027127 -3.872983 0 -3.872983 
C -1.027127 -3.872983 -2.012324 -3.464901 -2.738613 -2.738613 
C -3.464901 -2.012324 -3.872983 -1.027127 -3.872983 0 
C -3.872983 1.027127 -3.464901 2.012324 -2.738613 2.738613 
C -2.012324 3.464901 -1.027127 3.872983 0 3.872983 
z
" id="m7bc39ae032" style="stroke:#ccf1cc;"/>
    </defs>
    <g>
     <use style="fill:#ccf1cc;stroke:#ccf1cc;" x="872.9" xlink:href="#m7bc39ae032" y="172.1"/>
    </g>
   </g>
   <g id="text_21">
    <!-- 2 -->
    <g transform="translate(890.9 174.725)scale(0.1 -0.1)">
     <use xlink:href="#DejaVuSans-32"/>
    </g>
   </g>
   <g id="PathCollection_23">
    <defs>
     <path d="M 0 3.872983 
C 1.027127 3.872983 2.012324 3.464901 2.738613 2.738613 
C 3.464901 2.012324 3.872983 1.027127 3.872983 0 
C 3.872983 -1.027127 3.464901 -2.012324 2.738613 -2.738613 
C 2.012324 -3.464901 1.027127 -3.872983 0 -3.872983 
C -1.027127 -3.872983 -2.012324 -3.464901 -2.738613 -2.738613 
C -3.464901 -2.012324 -3.872983 -1.027127 -3.872983 0 
C -3.872983 1.027127 -3.464901 2.012324 -2.738613 2.738613 
C -2.012324 3.464901 -1.027127 3.872983 0 3.872983 
z
" id="mf4047bb470" style="stroke:#b3e3b3;"/>
    </defs>
    <g>
     <use style="fill:#b3e3b3;stroke:#b3e3b3;" x="872.9" xlink:href="#mf4047bb470" y="186.778125"/>
    </g>
   </g>
   <g id="text_22">
    <!-- 3 -->
    <g transform="translate(890.9 189.403125)scale(0.1 -0.1)">
     <use xlink:href="#DejaVuSans-33"/>
    </g>
   </g>
   <g id="PathCollection_24">
    <defs>
     <path d="M 0 3.872983 
C 1.027127 3.872983 2.012324 3.464901 2.738613 2.738613 
C 3.464901 2.012324 3.872983 1.027127 3.872983 0 
C 3.872983 -1.027127 3.464901 -2.012324 2.738613 -2.738613 
C 2.012324 -3.464901 1.027127 -3.872983 0 -3.872983 
C -1.027127 -3.872983 -2.012324 -3.464901 -2.738613 -2.738613 
C -3.464901 -2.012324 -3.872983 -1.027127 -3.872983 0 
C -3.872983 1.027127 -3.464901 2.012324 -2.738613 2.738613 
C -2.012324 3.464901 -1.027127 3.872983 0 3.872983 
z
" id="mff8db452a4" style="stroke:#99d599;"/>
    </defs>
    <g>
     <use style="fill:#99d599;stroke:#99d599;" x="872.9" xlink:href="#mff8db452a4" y="201.45625"/>
    </g>
   </g>
   <g id="text_23">
    <!-- 4 -->
    <g transform="translate(890.9 204.08125)scale(0.1 -0.1)">
     <use xlink:href="#DejaVuSans-34"/>
    </g>
   </g>
   <g id="PathCollection_25">
    <defs>
     <path d="M 0 3.872983 
C 1.027127 3.872983 2.012324 3.464901 2.738613 2.738613 
C 3.464901 2.012324 3.872983 1.027127 3.872983 0 
C 3.872983 -1.027127 3.464901 -2.012324 2.738613 -2.738613 
C 2.012324 -3.464901 1.027127 -3.872983 0 -3.872983 
C -1.027127 -3.872983 -2.012324 -3.464901 -2.738613 -2.738613 
C -3.464901 -2.012324 -3.872983 -1.027127 -3.872983 0 
C -3.872983 1.027127 -3.464901 2.012324 -2.738613 2.738613 
C -2.012324 3.464901 -1.027127 3.872983 0 3.872983 
z
" id="m17b217bed2" style="stroke:#80c780;"/>
    </defs>
    <g>
     <use style="fill:#80c780;stroke:#80c780;" x="872.9" xlink:href="#m17b217bed2" y="216.134375"/>
    </g>
   </g>
   <g id="text_24">
    <!-- 5 -->
    <g transform="translate(890.9 218.759375)scale(0.1 -0.1)">
     <use xlink:href="#DejaVuSans-35"/>
    </g>
   </g>
   <g id="PathCollection_26">
    <defs>
     <path d="M 0 3.872983 
C 1.027127 3.872983 2.012324 3.464901 2.738613 2.738613 
C 3.464901 2.012324 3.872983 1.027127 3.872983 0 
C 3.872983 -1.027127 3.464901 -2.012324 2.738613 -2.738613 
C 2.012324 -3.464901 1.027127 -3.872983 0 -3.872983 
C -1.027127 -3.872983 -2.012324 -3.464901 -2.738613 -2.738613 
C -3.464901 -2.012324 -3.872983 -1.027127 -3.872983 0 
C -3.872983 1.027127 -3.464901 2.012324 -2.738613 2.738613 
C -2.012324 3.464901 -1.027127 3.872983 0 3.872983 
z
" id="m9300285bff" style="stroke:#66b866;"/>
    </defs>
    <g>
     <use style="fill:#66b866;stroke:#66b866;" x="872.9" xlink:href="#m9300285bff" y="230.8125"/>
    </g>
   </g>
   <g id="text_25">
    <!-- 6 -->
    <g transform="translate(890.9 233.4375)scale(0.1 -0.1)">
     <use xlink:href="#DejaVuSans-36"/>
    </g>
   </g>
   <g id="PathCollection_27">
    <defs>
     <path d="M 0 3.872983 
C 1.027127 3.872983 2.012324 3.464901 2.738613 2.738613 
C 3.464901 2.012324 3.872983 1.027127 3.872983 0 
C 3.872983 -1.027127 3.464901 -2.012324 2.738613 -2.738613 
C 2.012324 -3.464901 1.027127 -3.872983 0 -3.872983 
C -1.027127 -3.872983 -2.012324 -3.464901 -2.738613 -2.738613 
C -3.464901 -2.012324 -3.872983 -1.027127 -3.872983 0 
C -3.872983 1.027127 -3.464901 2.012324 -2.738613 2.738613 
C -2.012324 3.464901 -1.027127 3.872983 0 3.872983 
z
" id="m1fe88ec165" style="stroke:#4daa4d;"/>
    </defs>
    <g>
     <use style="fill:#4daa4d;stroke:#4daa4d;" x="872.9" xlink:href="#m1fe88ec165" y="245.490625"/>
    </g>
   </g>
   <g id="text_26">
    <!-- 7 -->
    <g transform="translate(890.9 248.115625)scale(0.1 -0.1)">
     <use xlink:href="#DejaVuSans-37"/>
    </g>
   </g>
   <g id="PathCollection_28">
    <defs>
     <path d="M 0 3.872983 
C 1.027127 3.872983 2.012324 3.464901 2.738613 2.738613 
C 3.464901 2.012324 3.872983 1.027127 3.872983 0 
C 3.872983 -1.027127 3.464901 -2.012324 2.738613 -2.738613 
C 2.012324 -3.464901 1.027127 -3.872983 0 -3.872983 
C -1.027127 -3.872983 -2.012324 -3.464901 -2.738613 -2.738613 
C -3.464901 -2.012324 -3.872983 -1.027127 -3.872983 0 
C -3.872983 1.027127 -3.464901 2.012324 -2.738613 2.738613 
C -2.012324 3.464901 -1.027127 3.872983 0 3.872983 
z
" id="m00291cc197" style="stroke:#329c32;"/>
    </defs>
    <g>
     <use style="fill:#329c32;stroke:#329c32;" x="872.9" xlink:href="#m00291cc197" y="260.16875"/>
    </g>
   </g>
   <g id="text_27">
    <!-- 8 -->
    <g transform="translate(890.9 262.79375)scale(0.1 -0.1)">
     <use xlink:href="#DejaVuSans-38"/>
    </g>
   </g>
   <g id="PathCollection_29">
    <defs>
     <path d="M 0 3.872983 
C 1.027127 3.872983 2.012324 3.464901 2.738613 2.738613 
C 3.464901 2.012324 3.872983 1.027127 3.872983 0 
C 3.872983 -1.027127 3.464901 -2.012324 2.738613 -2.738613 
C 2.012324 -3.464901 1.027127 -3.872983 0 -3.872983 
C -1.027127 -3.872983 -2.012324 -3.464901 -2.738613 -2.738613 
C -3.464901 -2.012324 -3.872983 -1.027127 -3.872983 0 
C -3.872983 1.027127 -3.464901 2.012324 -2.738613 2.738613 
C -2.012324 3.464901 -1.027127 3.872983 0 3.872983 
z
" id="mca628f86c0" style="stroke:#198e19;"/>
    </defs>
    <g>
     <use style="fill:#198e19;stroke:#198e19;" x="872.9" xlink:href="#mca628f86c0" y="274.846875"/>
    </g>
   </g>
   <g id="text_28">
    <!-- 9 -->
    <g transform="translate(890.9 277.471875)scale(0.1 -0.1)">
     <use xlink:href="#DejaVuSans-39"/>
    </g>
   </g>
   <g id="PathCollection_30">
    <defs>
     <path d="M 0 3.872983 
C 1.027127 3.872983 2.012324 3.464901 2.738613 2.738613 
C 3.464901 2.012324 3.872983 1.027127 3.872983 0 
C 3.872983 -1.027127 3.464901 -2.012324 2.738613 -2.738613 
C 2.012324 -3.464901 1.027127 -3.872983 0 -3.872983 
C -1.027127 -3.872983 -2.012324 -3.464901 -2.738613 -2.738613 
C -3.464901 -2.012324 -3.872983 -1.027127 -3.872983 0 
C -3.872983 1.027127 -3.464901 2.012324 -2.738613 2.738613 
C -2.012324 3.464901 -1.027127 3.872983 0 3.872983 
z
" id="ma3f8d858c9" style="stroke:#008000;"/>
    </defs>
    <g>
     <use style="fill:#008000;stroke:#008000;" x="872.9" xlink:href="#ma3f8d858c9" y="289.525"/>
    </g>
   </g>
   <g id="text_29">
    <!-- 10 -->
    <g transform="translate(890.9 292.15)scale(0.1 -0.1)">
     <use xlink:href="#DejaVuSans-31"/>
     <use x="63.623047" xlink:href="#DejaVuSans-30"/>
    </g>
   </g>
  </g>
 </g>
 <defs>
  <clipPath id="p18b1c5c469">
   <rect height="374.99375" width="791.048095" x="63.825655" y="14.3"/>
  </clipPath>
 </defs>
</svg>
